<svg xmlns="http://www.w3.org/2000/svg" width="24" height="24" viewBox="0 0 24 24">
  <!-- Fire -->
  <path d="M12 2C10 5 13 8 11 11C9 14 6 11 6 15C6 18 8 21 12 21C16 21 18 18 18 15C18 11 15 14 13 11C11 8 14 5 12 2Z" fill="black"/>
  <!-- Slash -->
  <line x1="9" y1="12" x2="15" y2="12" stroke="black" stroke-width="2"/>
  <!-- Elephant -->
  <path d="M5 16C5 13 7 12 9 12C11 12 11 15 13 15C15 15 16 12 18 12C20 12 20 14 20 16C20 18 18 20 16 20C14 20 13 19 12 19C11 19 9 20 8 20C6 20 5 18 5 16Z" fill="black"/>
</svg>
